<svg xmlns="http://www.w3.org/2000/svg" viewBox="0 0 600 300" width="600" height="300">
  <g transform="translate(112,15) scale(0.25)">
    <g transform="translate(0.000000,704.000000) scale(0.100000,-0.100000)"
fill="#F0EDE8" stroke="none">
<path d="M6037 6988 c-53 -54 -118 -98 -144 -98 -10 0 -40 -12 -68 -25 -27
-14 -68 -25 -90 -25 -22 0 -60 -8 -85 -16 -90 -32 -551 -29 -700 5 -25 6 -110
15 -190 21 -79 6 -152 16 -161 21 -10 5 -75 9 -146 10 -70 0 -195 7 -278 16
-170 17 -657 19 -790 3 -44 -6 -138 -13 -210 -16 -71 -4 -134 -10 -140 -14
-10 -8 -90 -26 -150 -34 -16 -3 -52 -12 -79 -20 -27 -9 -64 -16 -83 -16 -19 0
-44 -6 -56 -14 -12 -8 -49 -18 -82 -22 -33 -3 -62 -10 -65 -14 -11 -16 -110
-59 -142 -63 -19 -2 -45 -14 -56 -25 -12 -12 -29 -22 -38 -22 -9 0 -27 -9 -41
-20 -14 -11 -31 -20 -38 -20 -7 0 -18 -7 -25 -16 -8 -8 -28 -21 -46 -29 -18
-7 -41 -22 -52 -33 -10 -10 -32 -25 -49 -32 -16 -7 -36 -27 -43 -43 -7 -16
-25 -36 -40 -45 -25 -15 -110 -130 -110 -150 0 -5 -9 -17 -20 -27 -11 -10 -20
-24 -20 -32 0 -7 -9 -38 -19 -69 -11 -30 -25 -88 -32 -128 -12 -70 -11 -75 19
-168 18 -52 32 -101 32 -108 0 -7 44 -57 97 -110 72 -71 112 -102 153 -119 30
-13 62 -29 71 -37 22 -19 118 -18 147 2 32 22 31 92 -3 132 -14 17 -25 38 -25
47 0 9 -9 28 -20 42 -27 35 -28 130 -2 164 11 13 22 39 25 57 10 52 117 181
172 209 16 8 39 23 50 33 11 9 36 23 55 30 19 7 47 26 62 42 15 15 36 28 47
28 11 0 23 5 26 10 13 21 103 58 158 65 31 4 57 11 57 16 0 4 19 13 43 20 23
6 62 19 87 29 25 10 68 18 95 19 28 0 67 9 88 20 28 14 59 20 118 20 44 0 87
4 97 9 16 9 61 20 212 52 35 7 194 13 430 16 368 3 494 -1 485 -16 -3 -4 -63
-11 -135 -15 -72 -4 -133 -11 -136 -16 -8 -14 -101 -59 -122 -59 -20 0 -102
-79 -102 -98 0 -18 -48 -92 -60 -92 -6 0 -10 -10 -10 -23 0 -12 -12 -40 -27
-62 -15 -22 -51 -83 -81 -135 -29 -52 -61 -102 -71 -110 -10 -9 -21 -37 -24
-65 -4 -27 -13 -58 -21 -69 -7 -12 -24 -52 -36 -91 -13 -38 -38 -97 -56 -130
-17 -33 -37 -77 -44 -98 -7 -21 -18 -41 -25 -43 -7 -3 -15 -26 -19 -51 -4 -29
-19 -63 -41 -95 -22 -30 -38 -65 -42 -93 -3 -25 -12 -50 -19 -56 -8 -6 -14
-20 -14 -31 0 -11 -7 -32 -15 -46 -8 -15 -21 -44 -29 -64 -8 -21 -20 -38 -25
-38 -6 0 -11 -17 -11 -37 0 -20 -8 -55 -18 -77 -11 -23 -24 -53 -30 -68 -6
-16 -16 -28 -22 -28 -5 0 -10 -14 -10 -31 0 -19 -17 -61 -40 -102 -23 -39 -42
-83 -44 -99 -2 -16 -10 -36 -18 -46 -9 -9 -18 -32 -22 -51 -8 -43 -56 -151
-67 -151 -5 0 -9 -16 -9 -35 0 -34 -53 -157 -71 -163 -5 -2 -9 -20 -9 -41 0
-24 -7 -45 -20 -59 -11 -12 -24 -41 -29 -64 -11 -55 -35 -111 -55 -128 -9 -7
-16 -28 -16 -49 0 -20 -4 -41 -8 -46 -5 -6 -14 -29 -22 -52 -7 -23 -22 -52
-32 -63 -11 -11 -22 -36 -25 -55 -3 -19 -12 -40 -19 -46 -8 -6 -14 -18 -14
-26 0 -8 -6 -29 -14 -46 -7 -18 -19 -51 -25 -75 -7 -24 -19 -46 -27 -49 -8 -3
-14 -16 -14 -29 0 -33 -36 -126 -58 -150 -11 -11 -21 -38 -24 -59 -3 -22 -21
-74 -40 -115 -20 -41 -38 -87 -42 -102 -3 -15 -13 -33 -21 -41 -8 -8 -17 -33
-21 -56 -4 -22 -13 -46 -20 -52 -8 -6 -14 -22 -14 -35 0 -13 -9 -33 -19 -43
-11 -11 -23 -40 -26 -65 -4 -25 -13 -51 -21 -57 -8 -6 -14 -19 -14 -29 0 -9
-9 -29 -20 -43 -11 -14 -20 -33 -20 -42 0 -9 -8 -29 -18 -43 -11 -15 -24 -45
-30 -67 -16 -60 -50 -148 -61 -154 -5 -3 -12 -24 -16 -46 -4 -22 -22 -72 -41
-112 -21 -44 -34 -87 -34 -112 0 -29 -7 -47 -25 -67 -14 -15 -25 -34 -25 -44
0 -9 -7 -25 -15 -36 -8 -10 -15 -27 -15 -36 0 -10 -9 -27 -19 -37 -11 -11 -22
-41 -26 -72 -4 -30 -22 -85 -40 -124 -18 -38 -36 -90 -40 -115 -4 -25 -13 -55
-21 -67 -8 -12 -14 -29 -14 -36 0 -8 -8 -25 -19 -38 -10 -13 -21 -40 -25 -60
-4 -21 -13 -42 -20 -48 -7 -6 -16 -34 -20 -62 -4 -27 -11 -60 -16 -72 -5 -12
-11 -34 -15 -50 -3 -15 -14 -36 -24 -46 -9 -9 -20 -25 -24 -34 -8 -22 -80 -15
-288 28 -161 34 -172 35 -392 35 -167 0 -242 -4 -285 -15 -137 -35 -190 -48
-242 -59 -31 -6 -69 -21 -84 -34 -16 -12 -50 -28 -77 -36 -26 -8 -56 -23 -67
-33 -11 -10 -43 -38 -71 -63 -28 -25 -51 -51 -51 -58 0 -7 -7 -15 -15 -18 -8
-4 -15 -12 -15 -19 0 -8 -11 -22 -25 -33 -14 -11 -25 -29 -25 -40 0 -10 -10
-32 -22 -48 -21 -26 -23 -41 -25 -151 -2 -102 0 -125 13 -135 9 -7 27 -23 40
-35 14 -13 35 -23 47 -23 27 1 67 33 67 54 0 9 6 19 14 22 8 3 16 14 19 25 3
10 13 22 22 25 9 4 31 20 48 35 19 18 47 31 74 35 24 3 43 10 43 14 0 4 28 20
63 36 49 22 81 29 152 32 50 2 95 8 100 12 34 27 143 34 510 32 316 -1 391 -4
445 -17 37 -10 137 -20 236 -25 117 -5 182 -12 205 -23 19 -8 64 -18 100 -21
37 -4 88 -13 115 -20 82 -24 555 -37 774 -23 108 8 133 13 184 38 33 16 67 29
77 29 10 0 21 5 24 10 3 6 18 10 32 10 15 0 35 7 45 17 20 18 32 25 106 64 53
29 142 111 142 132 0 7 16 30 35 51 31 34 35 45 35 92 0 30 -4 54 -9 54 -5 0
-11 9 -14 21 -5 20 -10 21 -67 14 -35 -4 -70 -15 -80 -24 -51 -46 -153 -101
-188 -101 -12 0 -33 -6 -45 -14 -22 -14 -140 -32 -232 -36 -201 -9 -569 15
-616 40 -10 6 -53 10 -96 10 -86 0 -144 13 -163 35 -14 17 -7 57 14 77 7 8 17
25 21 38 4 14 14 32 21 41 8 8 16 29 17 46 4 32 51 138 66 147 5 4 12 25 16
49 7 44 52 137 67 137 4 0 8 11 8 24 0 13 9 35 20 49 11 14 20 32 20 39 0 31
33 108 56 133 15 17 26 42 28 68 5 46 53 167 67 167 5 0 9 13 9 29 0 15 9 40
20 53 10 14 22 44 26 66 4 23 13 47 20 53 8 6 14 19 14 29 0 9 8 28 19 41 10
13 22 43 25 65 4 23 23 65 42 94 19 30 36 68 38 86 1 19 9 41 18 51 9 10 19
34 23 53 4 19 16 46 26 59 11 13 19 34 19 46 0 12 6 28 14 34 8 6 17 32 21 56
7 52 38 127 59 144 8 6 17 33 21 59 4 26 15 55 26 65 10 10 19 27 19 38 0 12
6 33 14 47 8 15 19 38 25 52 6 14 15 32 20 40 6 8 18 41 27 74 10 32 27 73 39
91 12 17 25 49 29 69 4 21 20 65 36 99 16 34 34 81 40 104 6 23 17 46 25 50 8
5 17 24 19 43 5 37 35 101 59 129 8 9 18 36 22 61 4 25 13 56 20 70 8 14 33
72 56 130 23 58 53 132 67 165 13 33 30 65 38 71 8 6 17 33 21 60 6 48 33 114
60 145 7 8 15 30 17 48 2 17 11 40 20 50 9 9 16 28 16 42 0 13 9 39 20 57 11
18 20 41 20 52 0 23 20 70 31 70 4 0 10 19 14 43 4 23 13 52 21 64 8 12 14 28
14 36 0 7 8 22 19 33 10 12 22 41 26 65 4 24 16 52 26 62 11 10 19 28 19 40 0
13 7 32 15 43 8 10 15 27 15 37 0 9 9 26 19 36 11 11 23 40 26 65 4 25 22 67
41 96 19 29 34 63 34 76 0 13 9 41 20 61 11 21 20 43 20 49 0 6 9 19 20 29 11
10 23 34 26 54 4 20 15 44 25 54 11 10 19 26 19 37 0 23 48 120 59 120 5 0 12
24 15 54 5 35 19 74 42 111 19 32 34 66 34 76 0 23 21 69 31 69 5 0 11 17 15
38 4 20 13 46 20 57 8 11 14 27 14 37 0 10 9 26 20 35 11 10 20 27 20 40 0 12
5 25 10 28 6 4 8 10 6 14 -3 4 10 31 29 60 35 53 45 107 30 163 -6 24 -4 28
20 34 40 10 131 1 415 -43 88 -14 172 -18 360 -17 256 1 372 14 404 47 9 8 35
18 58 22 24 4 52 15 63 25 11 10 38 29 60 42 61 38 102 86 110 126 4 20 13 48
21 63 45 88 37 191 -20 241 -44 39 -72 34 -129 -24z"/>
<path d="M5685 3709 c-3 -4 -36 -14 -73 -23 -37 -8 -84 -22 -105 -31 -20 -8
-50 -15 -67 -15 -16 0 -30 -4 -30 -8 0 -9 -99 -57 -140 -68 -14 -3 -32 -12
-40 -19 -8 -7 -25 -16 -37 -19 -13 -4 -23 -11 -23 -15 0 -5 -13 -14 -30 -21
-16 -7 -30 -16 -30 -20 0 -4 -12 -12 -26 -19 -14 -6 -42 -27 -62 -46 -21 -18
-59 -53 -85 -77 -149 -133 -214 -209 -259 -300 -10 -21 -23 -38 -28 -38 -6 0
-10 -13 -10 -28 0 -15 -5 -33 -12 -40 -7 -7 -9 -12 -5 -12 3 0 2 -12 -4 -27
-6 -16 -19 -67 -29 -115 -15 -69 -17 -103 -11 -160 9 -77 38 -197 52 -212 5
-6 9 -23 9 -39 0 -19 8 -36 23 -47 13 -10 32 -39 42 -64 11 -25 22 -46 26 -46
4 0 30 -31 58 -69 28 -37 70 -88 93 -112 56 -57 98 -106 124 -145 12 -17 42
-52 68 -79 25 -27 46 -52 46 -55 0 -4 13 -23 30 -41 16 -19 30 -39 30 -45 0
-6 11 -22 24 -35 13 -14 27 -43 31 -66 4 -24 11 -45 16 -49 14 -8 10 -52 -7
-79 -14 -22 -24 -25 -73 -25 -37 0 -70 -7 -96 -20 -22 -11 -47 -20 -56 -20 -9
0 -32 -7 -52 -15 -19 -8 -66 -17 -103 -20 -38 -3 -71 -10 -74 -15 -9 -14 -58
-30 -94 -30 -17 0 -36 -4 -42 -10 -16 -16 -185 -70 -221 -70 -18 0 -33 -4 -33
-9 0 -15 -83 -58 -127 -66 -23 -3 -44 -12 -47 -20 -2 -7 -26 -28 -52 -46 -62
-42 -144 -125 -144 -145 0 -8 -9 -27 -20 -42 -46 -63 0 -299 62 -317 32 -9
122 -56 129 -68 4 -6 114 -10 276 -10 l269 0 94 37 c51 21 99 35 106 32 7 -3
16 -1 19 4 4 6 19 10 35 10 16 0 33 6 37 14 4 8 21 17 37 20 16 3 36 12 46 21
9 8 23 15 32 15 8 0 27 11 42 25 15 14 36 25 47 25 11 0 31 13 45 29 14 16 40
35 59 41 19 6 35 16 35 21 0 5 18 20 40 34 42 27 140 123 140 137 0 5 7 11 15
14 8 4 15 11 15 17 0 5 11 25 25 43 14 18 25 37 25 42 0 4 11 18 25 30 14 12
25 31 25 41 0 11 15 40 34 65 19 24 38 60 41 79 8 43 48 87 79 87 13 0 26 6
29 14 7 19 105 66 137 66 14 0 30 8 38 20 7 11 17 20 22 20 12 0 61 33 97 64
18 15 25 17 37 6 10 -8 13 -18 7 -29 -4 -9 -11 -46 -14 -83 -4 -38 -11 -77
-17 -87 -19 -36 -41 -165 -47 -272 -6 -117 14 -233 49 -278 10 -13 18 -30 18
-37 0 -7 6 -17 13 -21 7 -4 23 -21 36 -38 25 -33 130 -74 193 -75 92 -1 256
47 329 96 28 19 55 34 60 34 14 0 193 122 203 139 5 8 47 51 94 95 141 134
322 320 322 332 0 7 101 132 145 179 20 22 44 53 52 69 8 16 23 38 34 49 10
11 27 39 38 62 11 23 33 53 48 66 16 13 39 44 51 69 12 25 40 63 61 85 22 22
40 47 41 56 1 44 43 90 69 75 10 -6 0 -59 -16 -91 -6 -11 -13 -76 -16 -145 -3
-72 -12 -143 -20 -166 -21 -57 -22 -490 -2 -538 8 -18 17 -71 21 -119 4 -48
10 -87 14 -87 8 0 57 -73 65 -99 3 -11 21 -30 40 -41 19 -12 43 -32 54 -46 10
-13 25 -24 33 -24 7 0 39 -9 69 -20 110 -38 219 -36 332 6 20 8 51 14 67 14
16 0 32 5 35 10 4 6 21 17 38 26 52 25 92 48 122 72 15 12 33 22 40 22 7 0 15
7 19 15 3 8 12 15 21 15 8 0 15 4 15 9 0 14 253 261 267 261 7 0 13 -8 14 -17
1 -10 2 -38 4 -63 1 -25 10 -70 19 -100 9 -30 16 -69 16 -87 0 -18 4 -33 9
-33 9 0 47 -56 67 -101 12 -26 47 -43 155 -74 88 -25 253 13 381 88 26 15 53
27 62 27 8 0 29 13 46 30 17 16 43 38 58 47 36 24 46 32 91 73 183 170 223
205 236 213 8 4 15 13 15 20 0 7 26 38 57 71 140 142 159 163 190 203 18 24
33 47 33 51 0 5 12 19 26 33 14 13 34 42 44 64 10 22 28 48 39 57 12 10 21 24
21 32 0 8 16 28 35 45 19 17 35 35 35 41 0 7 14 25 30 42 17 16 30 36 30 44 0
8 5 14 10 14 6 0 10 9 10 19 0 11 5 23 11 27 6 3 19 25 29 48 10 22 34 57 54
76 30 29 38 32 46 20 10 -15 6 -46 -12 -92 -5 -15 -7 -32 -3 -37 7 -13 -21
-204 -36 -239 -5 -13 -9 -144 -9 -291 0 -229 2 -272 16 -300 9 -19 19 -54 22
-80 3 -25 13 -59 24 -76 10 -16 18 -38 18 -48 0 -25 94 -136 143 -169 44 -31
80 -43 180 -60 61 -11 79 -10 165 9 164 36 180 42 227 78 25 19 62 42 83 52
20 9 51 28 68 42 18 14 44 35 59 46 38 28 135 123 135 133 0 5 37 47 83 95 45
47 87 94 93 104 18 30 39 21 42 -17 2 -19 9 -49 17 -67 8 -17 15 -40 15 -50 0
-11 8 -28 19 -37 10 -9 22 -35 25 -58 4 -22 16 -55 28 -72 27 -38 139 -146
151 -146 5 0 29 -13 54 -30 24 -16 52 -30 61 -30 10 0 35 -9 57 -20 22 -11 48
-20 58 -20 10 0 44 -7 75 -16 74 -22 256 -14 402 17 58 12 132 27 166 33 34 6
67 16 75 23 24 19 130 63 154 63 12 0 30 9 40 20 10 11 28 20 41 20 13 0 26 5
29 10 4 6 21 17 38 25 53 23 89 48 120 83 16 18 40 35 52 38 13 3 26 12 29 19
3 8 24 26 48 41 24 14 48 31 53 38 6 7 27 22 48 35 20 12 37 28 37 36 0 7 14
18 30 25 17 7 30 18 30 25 0 7 15 25 33 40 54 46 167 155 167 162 0 4 32 37
70 74 39 36 70 73 70 82 0 9 8 18 18 21 9 3 27 21 40 40 13 19 48 60 79 92 30
31 59 72 64 90 5 18 23 47 39 64 17 18 30 36 30 42 0 14 48 94 65 108 8 7 17
28 21 49 4 20 11 41 15 47 14 17 -25 100 -56 120 -22 15 -31 15 -67 4 -23 -6
-53 -24 -67 -39 -34 -36 -81 -104 -81 -117 0 -6 -13 -23 -30 -39 -16 -15 -34
-43 -40 -60 -6 -18 -29 -49 -50 -69 -22 -20 -40 -42 -40 -47 0 -6 -25 -36 -55
-66 -30 -30 -57 -62 -60 -73 -3 -10 -21 -28 -40 -41 -19 -13 -35 -28 -35 -32
0 -11 -179 -187 -190 -187 -4 0 -10 -9 -13 -20 -3 -12 -14 -20 -26 -20 -12 0
-21 -4 -21 -9 0 -12 -89 -101 -101 -101 -5 0 -27 -18 -48 -39 -21 -21 -53 -42
-70 -46 -17 -4 -34 -12 -38 -18 -16 -24 -71 -56 -109 -63 -21 -4 -45 -15 -54
-24 -8 -9 -40 -27 -70 -39 -30 -13 -66 -29 -80 -36 -46 -23 -94 -29 -250 -27
-145 2 -210 12 -210 33 0 5 -5 9 -10 9 -23 0 -98 86 -104 119 -3 19 -14 40
-24 47 -15 11 -17 35 -17 236 0 188 3 228 16 248 9 14 19 54 23 90 11 97 50
240 66 240 4 0 11 24 15 53 9 63 40 151 60 167 8 7 15 25 15 40 0 22 55 142
117 253 7 12 13 31 13 42 0 12 16 36 35 55 19 19 35 44 35 56 0 20 54 102 104
158 14 16 26 37 26 46 0 10 16 28 35 41 19 13 35 30 35 37 0 8 17 31 38 52 20
21 49 53 64 72 69 86 80 98 89 98 5 0 28 19 51 41 24 23 52 45 63 50 21 9 38
19 97 57 45 29 141 55 177 47 14 -3 51 -28 81 -55 l55 -49 -1 -88 c-1 -91 -33
-209 -60 -220 -6 -2 -15 -21 -19 -41 -4 -20 -13 -45 -21 -56 -8 -11 -14 -40
-14 -63 0 -36 4 -45 23 -52 13 -5 29 -16 36 -25 20 -24 121 -22 163 4 18 11
42 20 52 20 23 0 29 5 134 109 53 55 82 91 82 106 0 12 9 30 20 40 11 10 20
25 20 34 0 9 7 27 16 39 23 33 23 326 0 351 -9 10 -16 21 -16 25 0 4 -11 22
-25 40 -14 18 -25 38 -25 44 0 7 -6 12 -13 12 -8 0 -33 20 -56 45 -23 25 -51
45 -61 45 -10 0 -25 6 -32 13 -14 14 -155 37 -229 37 -26 0 -103 -13 -172 -30
-69 -16 -136 -30 -149 -30 -13 0 -43 -10 -68 -21 -92 -45 -107 -50 -139 -54
-19 -3 -40 -13 -48 -25 -8 -11 -22 -20 -32 -20 -10 0 -25 -7 -32 -16 -7 -9
-22 -20 -34 -25 -35 -17 -60 -33 -106 -71 -26 -21 -53 -38 -61 -38 -8 0 -35
-18 -59 -40 -24 -22 -55 -50 -69 -63 -13 -12 -36 -31 -51 -42 -15 -11 -59 -59
-99 -105 -39 -47 -93 -105 -119 -130 -26 -25 -65 -76 -86 -113 -20 -38 -48
-81 -61 -97 -13 -15 -24 -34 -24 -41 0 -14 -38 -73 -87 -135 -18 -23 -33 -46
-33 -52 0 -16 -38 -83 -62 -108 -10 -12 -21 -37 -23 -55 -3 -19 -11 -39 -20
-45 -8 -6 -15 -16 -15 -22 0 -11 -24 -68 -61 -147 -11 -22 -19 -50 -19 -61 0
-12 -9 -33 -20 -47 -11 -14 -20 -32 -20 -40 0 -8 -8 -25 -19 -38 -12 -16 -21
-50 -26 -98 -7 -69 -41 -161 -65 -176 -6 -3 -10 -19 -10 -35 0 -18 -7 -33 -19
-39 -10 -6 -22 -27 -25 -46 -5 -23 -21 -50 -47 -74 -21 -21 -39 -42 -39 -45 0
-14 -108 -142 -148 -176 -23 -19 -47 -47 -53 -62 -6 -14 -21 -29 -35 -32 -13
-4 -31 -20 -39 -36 -9 -17 -19 -30 -23 -30 -5 0 -23 -12 -40 -27 -47 -41 -82
-65 -130 -91 -77 -41 -147 -10 -213 94 -24 39 -24 42 -24 289 0 163 5 278 13
330 25 145 43 229 52 240 5 6 11 41 14 79 3 37 12 82 21 99 8 16 15 43 15 58
0 16 6 48 14 71 8 24 19 70 25 102 6 33 17 66 25 75 7 9 16 43 20 76 4 33 13
70 21 82 8 12 15 29 15 36 0 8 8 25 19 38 11 15 21 50 25 91 4 38 14 72 22 79
8 6 14 17 14 24 0 21 60 145 69 145 6 0 13 20 16 45 4 24 13 50 21 56 8 6 14
22 14 35 0 13 9 29 20 36 13 8 20 24 20 43 0 16 7 41 15 55 19 33 19 34 45
121 l22 75 -22 45 c-12 24 -37 56 -54 71 -28 24 -39 27 -108 28 -42 0 -79 -4
-82 -9 -4 -5 -38 -22 -78 -37 -76 -29 -184 -37 -223 -17 -11 6 -71 19 -133 28
-99 16 -127 17 -217 6 -57 -6 -128 -18 -159 -26 -31 -8 -82 -18 -114 -21 -31
-4 -68 -15 -81 -26 -13 -10 -36 -18 -52 -18 -15 0 -30 -4 -33 -9 -3 -4 -32
-16 -65 -25 -32 -9 -62 -23 -65 -31 -3 -8 -17 -15 -31 -15 -14 0 -25 -4 -25
-9 0 -14 -66 -60 -94 -65 -15 -3 -35 -14 -44 -24 -9 -11 -57 -50 -107 -87 -49
-37 -102 -85 -117 -106 -16 -22 -34 -39 -41 -40 -15 0 -38 -27 -128 -146 -39
-51 -74 -93 -78 -93 -4 0 -21 -25 -37 -56 -16 -30 -48 -77 -71 -102 -92 -101
-103 -114 -103 -123 0 -14 -52 -103 -71 -122 -11 -10 -19 -28 -19 -40 0 -12
-9 -30 -20 -40 -11 -9 -20 -24 -20 -32 0 -20 -35 -88 -55 -109 -9 -9 -19 -33
-22 -53 -3 -21 -14 -49 -25 -62 -10 -13 -18 -29 -18 -36 0 -7 -7 -18 -15 -25
-8 -7 -15 -23 -15 -36 0 -13 -9 -33 -19 -43 -10 -10 -22 -38 -26 -62 -4 -24
-13 -54 -21 -66 -8 -12 -14 -31 -14 -43 0 -11 -9 -29 -19 -39 -11 -11 -23 -35
-26 -54 -11 -59 -102 -195 -154 -231 -25 -18 -41 -37 -45 -57 -3 -16 -23 -46
-43 -67 -39 -39 -65 -70 -110 -129 -14 -18 -30 -33 -37 -33 -6 -1 -31 -21 -56
-45 -25 -26 -54 -45 -67 -45 -12 0 -23 -3 -25 -7 -8 -20 -81 -73 -99 -73 -11
0 -28 -7 -36 -16 -41 -41 -151 27 -159 97 -2 19 -14 57 -25 84 -20 47 -21 61
-15 206 3 86 12 177 20 205 8 27 16 85 17 129 2 87 16 173 30 191 5 7 10 29
10 50 1 22 8 62 15 89 8 28 19 79 24 114 5 34 16 71 24 80 9 10 17 42 19 81 4
74 41 217 63 241 8 8 14 29 14 46 0 35 18 93 30 93 4 0 10 18 13 41 3 22 12
48 21 58 9 9 19 32 22 50 4 18 13 35 20 38 8 3 17 23 20 45 4 22 13 46 21 53
8 8 19 28 24 45 6 16 15 30 20 30 5 0 9 13 9 28 0 16 7 37 15 48 8 10 19 36
25 56 6 20 17 44 25 52 9 8 17 33 19 56 2 22 11 52 20 65 11 16 16 47 16 93 0
67 -1 68 -43 110 -41 40 -45 42 -105 42 -34 0 -76 -6 -94 -14 -46 -20 -155
-53 -203 -60 -39 -6 -60 -3 -195 28 -84 20 -283 20 -375 0 -38 -8 -106 -20
-150 -26 -50 -8 -87 -19 -99 -30 -11 -10 -32 -18 -47 -18 -14 0 -32 -7 -39
-15 -7 -8 -23 -15 -36 -15 -13 0 -32 -9 -41 -20 -10 -11 -28 -20 -40 -20 -13
0 -33 -11 -44 -24 -11 -13 -45 -34 -75 -47 -30 -13 -54 -27 -54 -30 0 -4 -20
-19 -45 -33 -24 -15 -51 -36 -59 -47 -8 -12 -30 -32 -50 -45 -57 -39 -216
-205 -216 -226 0 -4 -4 -8 -10 -8 -14 0 -93 -88 -106 -119 -6 -15 -25 -39 -43
-53 -17 -15 -31 -31 -31 -37 0 -6 -9 -15 -20 -21 -11 -6 -20 -21 -20 -35 0
-13 -10 -36 -22 -52 -13 -15 -31 -44 -42 -63 -10 -19 -33 -57 -51 -85 -18 -27
-49 -80 -69 -117 -21 -37 -42 -70 -47 -74 -5 -3 -9 -14 -9 -25 0 -10 -9 -24
-20 -31 -12 -8 -20 -24 -20 -39 0 -26 -40 -110 -65 -139 -8 -9 -17 -34 -21
-57 -5 -31 -19 -55 -63 -101 -31 -33 -70 -67 -88 -76 -18 -9 -37 -25 -43 -36
-6 -11 -20 -20 -31 -20 -11 0 -37 -18 -58 -40 -21 -23 -63 -53 -92 -67 -30
-15 -58 -33 -62 -40 -4 -7 -13 -13 -19 -13 -5 0 -23 -11 -40 -25 -17 -14 -42
-25 -59 -25 -34 0 -69 31 -70 63 -4 89 -11 122 -32 147 -13 15 -32 54 -42 86
-10 33 -23 66 -30 74 -6 8 -15 23 -18 33 -4 9 -10 17 -15 17 -10 0 -72 93 -72
107 0 6 -15 23 -32 40 -18 16 -53 54 -78 82 -25 29 -71 81 -102 114 -32 34
-58 67 -58 74 0 6 -18 31 -40 54 -22 24 -40 49 -40 56 0 8 -7 16 -16 20 -21 8
-79 127 -93 191 -19 89 -13 198 14 277 13 38 29 71 34 73 6 2 11 8 11 13 0 14
53 79 64 79 5 0 26 18 47 40 21 22 47 40 58 40 10 0 21 6 24 14 3 7 25 16 48
20 24 4 50 13 59 20 22 20 87 36 148 36 54 0 122 -21 122 -39 0 -5 14 -14 30
-20 17 -5 30 -16 30 -24 0 -8 9 -26 20 -40 32 -40 35 -80 11 -130 -12 -24 -23
-61 -25 -84 -2 -22 -11 -54 -20 -71 -22 -42 -20 -69 4 -77 11 -3 25 -15 30
-26 8 -15 21 -19 59 -19 44 0 85 16 181 72 37 21 107 92 115 117 3 11 15 26
26 31 10 6 19 19 19 29 0 10 7 24 15 31 8 7 15 24 15 39 0 14 9 40 20 58 16
27 20 52 21 148 1 90 -2 120 -14 133 -8 9 -22 31 -30 47 -19 36 -72 95 -86 95
-5 0 -22 11 -37 25 -15 14 -39 25 -53 25 -15 0 -36 7 -48 15 -17 12 -53 15
-172 14 -84 -1 -154 -5 -156 -10z m2585 -398 l34 -28 -12 -63 c-6 -36 -20 -72
-32 -85 -11 -12 -20 -35 -20 -53 0 -17 -5 -34 -10 -37 -6 -4 -8 -10 -6 -14 3
-4 -10 -31 -29 -60 -19 -29 -35 -58 -35 -66 0 -7 -9 -24 -20 -38 -11 -14 -20
-32 -20 -40 0 -8 -9 -26 -20 -40 -11 -14 -20 -32 -20 -39 0 -8 -11 -25 -25
-38 -14 -13 -25 -33 -25 -45 0 -22 -33 -73 -56 -87 -6 -4 -15 -24 -18 -43 -4
-20 -20 -54 -35 -78 -15 -23 -33 -56 -40 -74 -7 -17 -19 -34 -27 -37 -8 -3
-14 -14 -14 -24 0 -22 -56 -112 -70 -112 -5 0 -10 -6 -10 -14 0 -19 -60 -116
-71 -116 -5 0 -9 -7 -9 -15 0 -8 -8 -19 -18 -24 -11 -6 -26 -30 -36 -54 -9
-24 -30 -56 -46 -71 -17 -14 -30 -35 -30 -46 0 -12 -30 -51 -71 -93 -68 -68
-97 -107 -118 -152 -5 -11 -26 -36 -47 -56 -22 -20 -68 -69 -104 -109 -36 -40
-78 -86 -95 -102 -118 -116 -154 -148 -185 -163 -19 -10 -45 -29 -56 -44 -19
-23 -29 -26 -85 -26 l-64 0 0 97 c1 76 4 101 18 115 9 11 19 41 22 68 9 68 31
151 55 200 11 24 22 58 24 76 4 39 38 130 61 165 8 13 15 33 15 44 0 25 45
124 72 159 10 13 18 32 18 43 0 10 7 21 15 24 9 4 15 19 15 36 0 16 9 41 20
55 11 14 20 31 20 38 0 7 10 25 22 40 12 16 24 38 25 49 2 11 12 28 23 38 11
10 20 29 20 41 0 12 9 30 20 40 11 9 20 25 20 36 0 10 7 24 15 31 8 7 19 29
25 50 6 22 24 50 41 64 17 15 32 37 33 51 2 13 22 44 45 67 22 24 41 46 41 50
0 22 136 179 193 223 14 11 26 26 27 32 0 7 18 26 40 42 23 16 50 41 61 55 11
14 39 30 62 37 23 6 49 16 57 23 8 6 42 24 75 40 33 16 72 35 87 43 15 7 58
16 95 19 37 3 72 9 78 15 17 17 50 9 85 -20z m3081 8 c17 -9 20 -17 14 -52
-11 -66 -46 -157 -68 -172 -13 -9 -19 -25 -19 -48 0 -24 -8 -42 -24 -58 -13
-12 -24 -30 -24 -40 0 -9 -7 -22 -15 -29 -8 -7 -15 -23 -15 -36 0 -13 -9 -33
-20 -44 -11 -11 -20 -28 -20 -39 0 -27 -50 -132 -66 -138 -8 -3 -14 -14 -14
-24 0 -11 -4 -27 -9 -37 -5 -9 -16 -33 -25 -52 -29 -58 -53 -100 -70 -119 -9
-10 -16 -26 -16 -35 0 -10 -18 -38 -39 -62 -23 -26 -42 -59 -46 -82 -4 -21
-23 -57 -46 -84 -21 -26 -39 -51 -39 -57 0 -14 -39 -69 -78 -110 -18 -18 -32
-41 -32 -51 0 -10 -20 -39 -45 -63 -25 -25 -45 -50 -45 -56 0 -16 -82 -121
-95 -121 -6 0 -18 -13 -26 -29 -22 -45 -198 -247 -237 -271 -13 -8 -32 -32
-43 -52 -11 -21 -24 -38 -30 -38 -7 0 -38 -26 -69 -57 -90 -90 -138 -127 -173
-136 -18 -4 -42 -13 -55 -19 -35 -18 -76 8 -80 48 -5 52 53 306 84 368 7 16
14 36 14 45 0 31 52 173 66 178 9 3 14 20 14 42 0 21 3 41 7 45 4 3 8 12 9 19
1 7 16 36 33 65 17 29 31 63 31 76 0 12 9 41 20 64 11 22 20 47 20 55 0 8 9
26 20 40 11 14 20 35 20 46 0 12 9 30 20 41 11 11 20 31 20 45 0 14 8 33 18
43 9 9 23 30 29 45 7 15 17 27 22 27 5 0 13 14 16 32 4 17 23 52 41 78 19 26
34 53 34 60 0 7 11 23 25 36 14 13 25 34 25 47 0 13 16 42 35 64 19 23 35 47
35 55 0 7 47 63 105 123 57 61 105 115 105 121 0 5 15 21 33 34 40 29 50 37
115 100 29 27 62 50 73 50 12 0 29 11 40 24 10 13 56 38 101 57 70 28 101 34
193 39 61 4 114 7 118 8 5 1 17 -3 28 -9z m-6132 -2175 c8 -7 -24 -68 -48 -94
-14 -15 -43 -48 -64 -74 -21 -25 -45 -46 -53 -46 -9 0 -28 -13 -42 -28 -15
-16 -49 -37 -77 -47 -27 -11 -53 -25 -58 -31 -4 -7 -29 -16 -55 -20 -26 -3
-54 -12 -62 -19 -22 -18 -106 -43 -170 -50 -72 -8 -187 9 -219 33 -33 25 -38
62 -11 87 11 11 28 28 38 38 23 25 79 53 121 61 19 3 41 12 49 18 27 23 157
68 195 68 21 0 45 6 52 14 8 8 43 17 77 21 35 4 68 10 73 14 14 10 154 58 185
64 23 4 60 -1 69 -9z"/>
</g>
  </g>
  <line x1="180" y1="210" x2="420" y2="210" stroke="#F0EDE8" stroke-width="0.75"/>
  <text x="300" y="252" font-family="'DM Sans','Helvetica Neue',sans-serif" font-weight="200" font-size="18" fill="#F0EDE8" text-anchor="middle" letter-spacing="14">ARCHITECTS</text>
</svg>